# xmcd
#
# Track frame offsets:
#	150
#	24202
#	57202
#	79889
#	110826
#	141051
#	204988
#	246575
#
# Disc length: 3472 seconds
#
# Revision: 1
# Processed by: cddbd v1.5.2PL0 Copyright (c) Steve Scherf et al.
# Submitted via: audiograbber 1.83.01
#
DISCID=6b0d8e08
DTITLE=Mark Knopfler - Live in Rome 2005
DYEAR=2005
DGENRE=Rock
TTITLE0=Done with Bonaparte
TTITLE1=Song for Sonny Liston
TTITLE2=Donegan is gone
TTITLE3=Boom like that
TTITLE4=Speedway at Nazareth
TTITLE5=Telegraph road
TTITLE6=Brothers in arms
TTITLE7=Money for nothing
EXTD=
EXTT0=
EXTT1=
EXTT2=
EXTT3=
EXTT4=
EXTT5=
EXTT6=
EXTT7=
PLAYORDER=
